<?xml version="1.0" encoding="UTF-8" standalone="no"?>
<!-- Created with Inkscape (http://www.inkscape.org/) -->

<svg
   xmlns:dc="http://purl.org/dc/elements/1.1/"
   xmlns:cc="http://creativecommons.org/ns#"
   xmlns:rdf="http://www.w3.org/1999/02/22-rdf-syntax-ns#"
   xmlns:svg="http://www.w3.org/2000/svg"
   xmlns="http://www.w3.org/2000/svg"
   xmlns:sodipodi="http://sodipodi.sourceforge.net/DTD/sodipodi-0.dtd"
   xmlns:inkscape="http://www.inkscape.org/namespaces/inkscape"
   width="45.81208mm"
   height="13.156233mm"
   viewBox="0 0 45.81208 13.156233"
   version="1.1"
   id="svg4608"
   sodipodi:docname="logo.svg"
   inkscape:version="0.92.4 (5da689c313, 2019-01-14)">
  <defs
     id="defs4602" />
  <sodipodi:namedview
     id="base"
     pagecolor="#ffffff"
     bordercolor="#666666"
     borderopacity="1.0"
     inkscape:pageopacity="0.0"
     inkscape:pageshadow="2"
     inkscape:zoom="1.979899"
     inkscape:cx="96.148616"
     inkscape:cy="-9.2643421"
     inkscape:document-units="mm"
     inkscape:current-layer="g5329"
     showgrid="false"
     inkscape:pagecheckerboard="true"
     fit-margin-top="0"
     fit-margin-left="0"
     fit-margin-right="0"
     fit-margin-bottom="0"
     inkscape:window-width="1366"
     inkscape:window-height="705"
     inkscape:window-x="-8"
     inkscape:window-y="-8"
     inkscape:window-maximized="1" />
  <metadata
     id="metadata4605">
    <rdf:RDF>
      <cc:Work
         rdf:about="">
        <dc:format>image/svg+xml</dc:format>
        <dc:type
           rdf:resource="http://purl.org/dc/dcmitype/StillImage" />
        <dc:title></dc:title>
      </cc:Work>
    </rdf:RDF>
  </metadata>
  <g
     inkscape:label="Layer 1"
     inkscape:groupmode="layer"
     id="layer1"
     transform="translate(-10.949428,-136.04755)">
    <g
       aria-label="TechQuest"
       style="font-style:normal;font-variant:normal;font-weight:bold;font-stretch:normal;font-size:10.58333302px;line-height:0;font-family:serif;-inkscape-font-specification:'serif Bold';letter-spacing:0px;word-spacing:0px;fill:#000000;fill-opacity:1;stroke:none;stroke-width:0.26458332"
       id="text5155" />
    <g
       id="g5329"
       transform="translate(-4.4099472,-12.695303)">
      <path
         transform="scale(0.26458333)"
         id="path5298"
         d="m 64.220703,562.74219 v 6.6914 h 0.693359 c 0.279514,-1.82291 0.946617,-3.22654 2.003907,-4.21093 0.753474,-0.70486 1.963976,-1.0586 3.628906,-1.0586 h 1.785156 v 19.06836 c 0,1.23959 -0.06555,2.00522 -0.199219,2.29688 -0.182291,0.41325 -0.432073,0.70492 -0.748046,0.875 -0.437501,0.25522 -1.015411,0.38281 -1.732422,0.38281 h -0.820313 v 0.67383 h 12.94336 v -0.67383 h -0.820313 c -0.704862,0 -1.264539,-0.1149 -1.677734,-0.3457 -0.401036,-0.24305 -0.674473,-0.52388 -0.820313,-0.83985 -0.133669,-0.31599 -0.199219,-1.10526 -0.199219,-2.36914 v -19.06836 h 1.839844 c 1.154515,0 1.963976,0.10942 2.425782,0.32813 0.826388,0.40103 1.47526,0.94248 1.949218,1.62304 0.473961,0.6684 0.906034,1.77496 1.294922,3.31836 h 0.65625 v -6.6914 z m 54.541017,0 v 0.67578 c 0.75347,0.0972 1.24566,0.30317 1.47656,0.61914 0.24305,0.31597 0.36524,1.11806 0.36524,2.40625 v 17.31836 c 0,1.30033 -0.10396,2.0842 -0.31055,2.35156 -0.30382,0.38899 -0.81424,0.61859 -1.53125,0.69141 v 0.65625 h 8.64062 v -0.65625 c -0.71701,-0.0972 -1.19097,-0.35242 -1.42187,-0.76563 -0.1823,-0.30382 -0.27344,-1.06207 -0.27344,-2.27734 v -9.13281 c 0.53472,-0.83855 1.03429,-1.42189 1.49609,-1.75 0.46181,-0.34029 0.93577,-0.51172 1.42188,-0.51172 0.32813,0 0.61979,0.10393 0.875,0.31054 0.26736,0.19445 0.45507,0.4733 0.56445,0.83789 0.10938,0.35243 0.16407,1.23482 0.16407,2.64454 v 7.60156 c 0,1.22744 -0.10937,1.99848 -0.32813,2.31445 -0.30382,0.40093 -0.75955,0.64335 -1.36719,0.72852 v 0.65625 h 8.64063 v -0.65625 c -0.74133,-0.0851 -1.23352,-0.2856 -1.47656,-0.60157 -0.24305,-0.32813 -0.36524,-1.14107 -0.36524,-2.4414 v -6.6543 c 0,-1.94446 -0.1276,-3.32443 -0.38281,-4.13867 -0.24306,-0.82638 -0.74609,-1.54274 -1.51172,-2.15039 -0.75347,-0.60762 -1.66493,-0.91211 -2.73438,-0.91211 -0.83854,0 -1.648,0.20792 -2.42578,0.62109 -0.77777,0.40106 -1.63455,1.09376 -2.57031,2.07813 v -9.86328 z m -25.228517,7.16406 c -2.065973,0 -3.87066,0.84593 -5.414062,2.53516 -1.531251,1.6771 -2.296875,3.9375 -2.296875,6.78125 0,2.32118 0.523219,4.26433 1.568359,5.83203 1.300346,1.94444 3.214409,2.91797 5.742187,2.91797 1.470486,0 2.764756,-0.3902 3.882813,-1.16797 1.118055,-0.78992 2.138889,-2.12608 3.062495,-4.00977 l -0.621089,-0.40039 c -0.680554,1.05731 -1.318575,1.7919 -1.914062,2.20508 -0.595485,0.40106 -1.257162,0.60156 -1.986328,0.60156 -1.17882,0 -2.18685,-0.50499 -3.025391,-1.51367 -1.093747,-1.3125 -1.695308,-3.09897 -1.804688,-5.35938 h 9.351558 c -0.09722,-2.78299 -0.7845,-4.87932 -2.060542,-6.28906 -1.263889,-1.42186 -2.75868,-2.13281 -4.484375,-2.13281 z m 16.861327,0 c -2.625,0 -4.68489,1.06467 -6.17969,3.19141 -1.23958,1.76214 -1.85937,3.80381 -1.85937,6.125 0,2.40625 0.68186,4.46615 2.04297,6.17968 1.36111,1.71354 3.17665,2.57032 5.44922,2.57032 1.34895,0 2.61957,-0.36461 3.81054,-1.09375 1.20313,-0.74135 2.20573,-1.86613 3.00782,-3.37305 l -0.56446,-0.4375 c -0.72916,0.77778 -1.36176,1.30643 -1.89648,1.58594 -0.53472,0.27953 -1.09983,0.41992 -1.69531,0.41992 -0.91146,0 -1.70074,-0.26257 -2.36915,-0.78516 -0.88715,-0.717 -1.58723,-1.80337 -2.09765,-3.26172 -0.51042,-1.47048 -0.76563,-3.00912 -0.76563,-4.61328 0,-1.93229 0.31728,-3.36502 0.94922,-4.30078 0.4132,-0.61979 0.91081,-0.92969 1.49414,-0.92969 0.37674,0 0.70486,0.15126 0.98438,0.45508 0.27951,0.3038 0.45638,0.83789 0.5293,1.60352 0.10937,1.21527 0.39366,2.06118 0.85546,2.53515 0.47396,0.47396 1.0701,0.71094 1.78711,0.71094 0.68056,0 1.22744,-0.20789 1.64063,-0.62109 0.42535,-0.41318 0.63867,-0.96549 0.63867,-1.65821 0,-1.09374 -0.52322,-2.08354 -1.56836,-2.9707 -1.03299,-0.88715 -2.43121,-1.33203 -4.19336,-1.33203 z m -17.134764,1.18555 c 0.425348,0 0.766278,0.10941 1.021484,0.32812 0.449663,0.37675 0.777786,0.92906 0.984375,1.6582 0.218759,0.72918 0.328125,2.07269 0.328125,4.0293 h -4.958984 v -0.63867 c 0,-1.88369 0.359157,-3.36567 1.076172,-4.44727 0.40104,-0.61979 0.916883,-0.92968 1.548828,-0.92968 z"
         style="font-style:normal;font-variant:normal;font-weight:bold;font-stretch:normal;font-size:10.58333302px;line-height:0;font-family:serif;-inkscape-font-specification:'serif Bold';letter-spacing:0px;word-spacing:0px;fill:#5c3500;fill-opacity:1;stroke:none;stroke-width:0.99999994"
         inkscape:connector-curvature="0" />
      <path
         transform="scale(0.26458333)"
         id="path5306"
         d="m 152.88672,562.17773 c -3.81597,0 -6.96224,1.22679 -9.44141,3.68165 -2.47916,2.4427 -3.71875,5.51259 -3.71875,9.20703 0,3.18405 0.91146,5.92383 2.73438,8.2207 1.83507,2.29687 4.24674,3.76064 7.23633,4.39258 0.8993,2.13888 2.23545,3.76127 4.00976,4.86719 1.78646,1.10591 3.8099,1.66015 6.07031,1.66015 1.44618,0 3.08681,-0.23155 4.92188,-0.69336 v -1.11133 c -0.54688,0.0973 -1.06272,0.14454 -1.54883,0.14454 -1.77431,0 -3.25087,-0.40647 -4.42969,-1.22071 -1.17882,-0.81423 -2.04839,-2.03015 -2.60742,-3.64648 2.72222,-0.46181 5.05013,-1.87631 6.98242,-4.2461 1.93229,-2.36979 2.89844,-5.15884 2.89844,-8.36718 0,-3.68227 -1.23416,-6.75216 -3.70117,-9.20703 -2.46701,-2.45486 -5.60243,-3.68165 -9.40625,-3.68165 z m -0.0176,1.38477 c 2.27257,0 3.99154,1.11937 5.1582,3.35547 0.93577,1.77431 1.4043,4.64171 1.4043,8.60351 0,4.02258 -0.74739,7.0358 -2.24219,9.04102 -1.03298,1.39757 -2.47309,2.09766 -4.32031,2.09766 -1.83507,0 -3.27517,-0.71093 -4.32031,-2.13282 -1.49479,-2.04167 -2.24219,-5.17708 -2.24219,-9.40625 0,-3.52428 0.49761,-6.24043 1.49414,-8.14843 1.19097,-2.27256 2.88086,-3.41016 5.06836,-3.41016 z m 73.68164,0.62109 c -0.80208,1.47049 -1.74262,2.80121 -2.82422,3.99219 -1.06944,1.19098 -2.37109,2.3266 -3.90234,3.4082 v 0.63868 h 2.22461 v 9.20507 c 0,1.82292 0.0601,2.94034 0.18164,3.35352 0.2066,0.74134 0.68055,1.41582 1.42187,2.02344 0.75348,0.5955 1.67231,0.89453 2.75391,0.89453 2.2118,0 3.80859,-1.16665 4.79297,-3.5 l -0.54688,-0.40234 c -0.70486,1.20312 -1.45225,1.80468 -2.24218,1.80468 -0.19445,0 -0.40582,-0.0838 -0.63672,-0.2539 -0.23092,-0.18228 -0.39498,-0.41383 -0.49219,-0.69336 -0.0851,-0.29166 -0.12891,-0.92968 -0.12891,-1.91407 v -10.51757 h 4.04688 v -1.80469 h -4.04688 v -6.23438 z m -29.33008,5.72266 c -2.06597,0 -3.87066,0.84593 -5.41406,2.53516 -1.53125,1.6771 -2.29687,3.9375 -2.29687,6.78125 0,2.32118 0.52322,4.26433 1.56835,5.83203 1.30035,1.94444 3.21441,2.91797 5.74219,2.91797 1.47049,0 2.76476,-0.3902 3.88281,-1.16797 1.11806,-0.78992 2.13889,-2.12608 3.0625,-4.00977 l -0.62109,-0.40039 c -0.68056,1.05731 -1.31858,1.7919 -1.91406,2.20508 -0.59549,0.40106 -1.25716,0.60156 -1.98633,0.60156 -1.17882,0 -2.18685,-0.50499 -3.02539,-1.51367 -1.09374,-1.3125 -1.69531,-3.09897 -1.80469,-5.35938 h 9.35156 c -0.0972,-2.78299 -0.7845,-4.87932 -2.06054,-6.28906 -1.26389,-1.42186 -2.75868,-2.13281 -4.48438,-2.13281 z m 14.16407,0 c -1.71355,0 -3.02605,0.53604 -3.9375,1.60547 -0.89931,1.05731 -1.34961,2.24221 -1.34961,3.55469 0,1.20312 0.40104,2.30229 1.20312,3.29882 0.54688,0.68057 1.75,1.66494 3.60938,2.95313 1.26389,0.86284 2.07877,1.50629 2.44336,1.93164 0.36458,0.42535 0.54687,0.93034 0.54687,1.51367 0,0.51041 -0.18772,0.9479 -0.56445,1.3125 -0.36459,0.35243 -0.83855,0.5293 -1.42188,0.5293 -0.85069,0 -1.75673,-0.40103 -2.71679,-1.20313 -0.94792,-0.80209 -1.69532,-2.00521 -2.24219,-3.60937 h -0.61914 l 0.29101,6.125 h 0.60157 c 0.26736,-0.60762 0.60091,-0.91211 1.00195,-0.91211 0.13368,0 0.38346,0.0674 0.74805,0.20117 1.36111,0.51041 2.44943,0.76563 3.26367,0.76563 1.04514,0 1.99848,-0.24437 2.86133,-0.73047 0.86284,-0.48613 1.53189,-1.18426 2.00586,-2.09571 0.47395,-0.91147 0.71093,-1.84115 0.71093,-2.78906 0,-1.04514 -0.28624,-1.98762 -0.85742,-2.82617 -0.55903,-0.8507 -1.73112,-1.87695 -3.51758,-3.08008 -1.78646,-1.21527 -2.87478,-2.07204 -3.26367,-2.57031 -0.24305,-0.30382 -0.36523,-0.61915 -0.36523,-0.94727 0,-0.43749 0.17686,-0.8203 0.52929,-1.14843 0.35243,-0.34029 0.77713,-0.51172 1.27539,-0.51172 0.78994,0 1.58117,0.31725 2.3711,0.94922 0.80208,0.63193 1.57313,1.80947 2.31445,3.53515 h 0.61914 l -0.27344,-5.81445 h -0.61914 c -0.29165,0.42532 -0.50497,0.68594 -0.63867,0.7832 -0.13367,0.0852 -0.30858,0.12891 -0.52734,0.12891 -0.2066,0 -0.47461,-0.091 -0.80274,-0.27344 -0.86284,-0.44964 -1.75607,-0.67578 -2.67968,-0.67578 z m -42.94727,0.51172 v 0.67383 c 0.75347,0.0972 1.24566,0.30317 1.47656,0.61914 0.24305,0.31597 0.36328,1.11806 0.36328,2.40625 v 6.76367 c 0,1.96876 0.12761,3.34872 0.38282,4.13867 0.25521,0.78992 0.75477,1.48265 1.49609,2.07813 0.75347,0.58333 1.61024,0.875 2.57031,0.875 1.00868,0 1.92014,-0.21876 2.73438,-0.65625 0.81423,-0.44967 1.62717,-1.1606 2.4414,-2.13282 v 2.27735 h 6.94532 v -0.65625 c -0.74133,-0.0851 -1.23352,-0.2856 -1.47657,-0.60157 -0.24305,-0.32813 -0.36328,-1.14107 -0.36328,-2.4414 v -13.34375 h -6.94531 v 0.67383 c 0.75347,0.0972 1.24566,0.30317 1.47656,0.61914 0.24305,0.31597 0.36328,1.11806 0.36328,2.40625 v 9.11523 c -0.68055,0.96008 -1.26389,1.5981 -1.75,1.91406 -0.35243,0.23081 -0.74609,0.34571 -1.18359,0.34571 -0.32813,0 -0.61979,-0.091 -0.875,-0.27344 -0.24306,-0.1823 -0.42535,-0.44835 -0.54687,-0.80078 -0.10938,-0.35243 -0.16407,-1.13629 -0.16407,-2.35156 v -11.64844 z m 28.50977,0.67383 c 0.42534,0 0.76627,0.10941 1.02148,0.32812 0.44966,0.37675 0.77779,0.92906 0.98437,1.6582 0.21876,0.72918 0.32813,2.07269 0.32813,4.0293 h -4.95898 v -0.63867 c 0,-1.88369 0.35915,-3.36567 1.07617,-4.44727 0.40104,-0.61979 0.91688,-0.92968 1.54883,-0.92968 z"
         style="font-style:normal;font-variant:normal;font-weight:bold;font-stretch:normal;font-size:10.58333302px;line-height:0;font-family:serif;-inkscape-font-specification:'serif Bold';letter-spacing:0px;word-spacing:0px;fill:#ffc500;fill-opacity:1;stroke:none;stroke-width:0.99999994;fill-rule:nonzero"
         inkscape:connector-curvature="0" />
      <path
         inkscape:connector-curvature="0"
         id="path5287"
         d="m 15.359375,156.15039 0.01758,0.26367 1.054688,-0.0644 -0.01563,-0.26367 z m 1.322266,0.20117 1.05664,0.0547 0.01367,-0.26367 -1.056641,-0.0566 z m 1.308593,0.0898 1.00586,0.13867 v 0.002 l 0.0332,0.006 0.05078,-0.25977 -0.0332,-0.006 h -0.0039 l -0.0039,-0.002 -1.013671,-0.14062 z m 1.298828,0.19726 1.039063,0.20313 0.05078,-0.25782 -1.039062,-0.20507 z m 1.292969,0.26172 1.03125,0.23438 0.06055,-0.25782 -1.033203,-0.23437 z m 1.289063,0.29492 1.033203,0.23438 0.05859,-0.25781 -1.03125,-0.23438 z m 1.291015,0.29492 0.34961,0.0801 h 0.002 l 0.68164,0.15039 0.05664,-0.25781 -0.681641,-0.15039 -0.349609,-0.0801 z m 1.291016,0.28711 0.910156,0.20118 h 0.002 v 0.002 l 0.125,0.0234 0.05078,-0.25977 -0.121094,-0.0234 h -0.002 l -0.90625,-0.20117 z m 1.296875,0.2793 1.037109,0.20508 0.05273,-0.25977 -1.039063,-0.20507 z m 1.296875,0.25781 0.394531,0.0781 h 0.002 0.002 l 0.648438,0.10937 0.04297,-0.26172 -0.648438,-0.10937 v 0.002 l -0.388672,-0.0781 z m 1.306641,0.23047 1.042968,0.17578 0.04492,-0.25976 -1.042968,-0.17578 z m 1.304687,0.2207 0.119141,0.0195 h 0.002 0.0039 l 0.927735,0.125 0.03516,-0.26172 -0.927735,-0.125 v 0.002 l -0.115234,-0.0215 z m 1.314453,0.17969 1.048828,0.14063 0.03516,-0.26172 -1.048829,-0.14063 z m 1.3125,0.17578 0.121094,0.0176 h 0.002 0.002 l 0.931641,0.0918 0.02539,-0.26367 -0.925782,-0.0918 h -0.0059 l -0.115235,-0.0156 z m 22.460938,-0.13867 0.01953,0.26367 1.054687,-0.0742 -0.01758,-0.26368 z m -21.140625,0.27344 1.052734,0.10352 0.02539,-0.26368 -1.052735,-0.10351 z m 19.820312,-0.17969 0.01953,0.26367 1.056641,-0.0742 -0.01953,-0.26367 z m -1.318359,0.0937 0.01758,0.26367 1.056641,-0.0742 -0.01953,-0.26563 z m -17.185547,0.21485 0.433594,0.043 h 0.002 0.002 l 0.623047,0.0391 0.01563,-0.26563 -0.617188,-0.0371 h -0.0039 l -0.429687,-0.043 z m 16.091797,-0.13672 v -0.002 l -0.222656,0.01 0.0098,0.26367 0.222657,-0.008 h 0.002 0.002 l 0.833984,-0.0606 -0.01758,-0.26367 z m -14.767578,0.23437 1.05664,0.0645 0.01563,-0.26368 -1.05664,-0.0644 z m 13.222656,-0.17383 0.01172,0.26563 1.05664,-0.043 -0.0098,-0.26367 z m -11.902344,0.25586 1.056641,0.0645 0.01563,-0.26368 -1.056641,-0.0664 z m 10.580078,-0.20117 0.01172,0.26367 1.056641,-0.043 -0.0098,-0.26367 z m -9.255859,0.27344 1.058594,0.0293 0.0078,-0.26563 -1.058593,-0.0273 z m 7.935547,-0.2207 0.0098,0.26367 1.058593,-0.041 -0.01172,-0.26562 z m -6.611328,0.25586 1.05664,0.0273 0.0078,-0.26367 -1.058594,-0.0274 z m 6.246094,-0.24024 h -0.0059 l -0.947266,0.006 0.002,0.26562 0.953125,-0.008 h 0.002 0.002 l 0.105469,-0.004 -0.01172,-0.26563 z m -4.923829,0.27539 0.814453,0.0215 h 0.002 0.002 l 0.24414,-0.002 -0.002,-0.26562 -0.238281,0.002 h -0.002 -0.0039 l -0.810547,-0.0215 z m 2.646485,-0.25781 0.002,0.26367 1.058594,-0.008 -0.002,-0.26367 z m -1.322266,0.01 0.002,0.26563 1.058594,-0.01 -0.002,-0.26367 z"
         style="color:#000000;font-style:normal;font-variant:normal;font-weight:normal;font-stretch:normal;font-size:medium;line-height:normal;font-family:sans-serif;font-variant-ligatures:normal;font-variant-position:normal;font-variant-caps:normal;font-variant-numeric:normal;font-variant-alternates:normal;font-feature-settings:normal;text-indent:0;text-align:start;text-decoration:none;text-decoration-line:none;text-decoration-style:solid;text-decoration-color:#000000;letter-spacing:normal;word-spacing:normal;text-transform:none;writing-mode:lr-tb;direction:ltr;text-orientation:mixed;dominant-baseline:auto;baseline-shift:baseline;text-anchor:start;white-space:normal;shape-padding:0;clip-rule:nonzero;display:inline;overflow:visible;visibility:visible;opacity:1;isolation:auto;mix-blend-mode:normal;color-interpolation:sRGB;color-interpolation-filters:linearRGB;solid-color:#000000;solid-opacity:1;vector-effect:none;fill:#000000;fill-opacity:1;fill-rule:nonzero;stroke:none;stroke-width:0.26458332;stroke-linecap:butt;stroke-linejoin:miter;stroke-miterlimit:4;stroke-dasharray:1.05833327, 0.26458332;stroke-dashoffset:0;stroke-opacity:1;color-rendering:auto;image-rendering:auto;shape-rendering:auto;text-rendering:auto;enable-background:accumulate" />
      <g
         id="text5293"
         style="font-style:normal;font-weight:normal;font-size:8.37817955px;line-height:1.25;font-family:sans-serif;letter-spacing:0px;word-spacing:0px;fill:#ff0000;fill-opacity:1;stroke:none;stroke-width:0.20945449;paint-order:stroke fill markers"
         transform="rotate(19.104204)"
         aria-label="x">
        <path
           id="path5295"
           style="fill:#ff0000;fill-opacity:1;stroke-width:0.20945449;paint-order:stroke fill markers"
           d="m 108.64099,133.70616 h -0.96955 l -1.29682,-1.755 -1.305,1.755 h -0.8959 l 1.78363,-2.27863 -1.76727,-2.29091 h 0.96954 l 1.28864,1.72636 1.29273,-1.72636 h 0.9 l -1.79591,2.25 z"
           inkscape:connector-curvature="0" />
      </g>
    </g>
  </g>
</svg>
